<?xml version="1.0" encoding="UTF-8" standalone="no"?>
<!DOCTYPE svg PUBLIC "-//W3C//DTD SVG 1.1//EN"
 "http://www.w3.org/Graphics/SVG/1.1/DTD/svg11.dtd">
<!-- Generated by graphviz version 2.43.0 (0)
 -->
<!-- Title: cadena Pages: 1 -->
<svg width="910pt" height="118pt"
 viewBox="0.00 0.00 910.00 118.43" xmlns="http://www.w3.org/2000/svg" xmlns:xlink="http://www.w3.org/1999/xlink">
<g id="graph0" class="graph" transform="scale(1 1) rotate(0) translate(4 114.43)">
<title>cadena</title>
<!-- L -->
<g id="node1" class="node">
<title>L</title>
<path fill="#eef3fb" stroke="#4a6fa5" d="M130,-103.93C130,-103.93 12,-103.93 12,-103.93 6,-103.93 0,-97.93 0,-91.93 0,-91.93 0,-68.93 0,-68.93 0,-62.93 6,-56.93 12,-56.93 12,-56.93 130,-56.93 130,-56.93 136,-56.93 142,-62.93 142,-68.93 142,-68.93 142,-91.93 142,-91.93 142,-97.93 136,-103.93 130,-103.93"/>
<text text-anchor="middle" x="71" y="-90.33" font-family="Helvetica,sans-Serif" font-size="12.00">¿Dónde está?</text>
<text text-anchor="middle" x="71" y="-77.33" font-family="Helvetica,sans-Serif" font-size="12.00">Localización espacial</text>
<text text-anchor="middle" x="71" y="-64.33" font-family="Helvetica,sans-Serif" font-size="12.00">(Bloques 08–10)</text>
</g>
<!-- K -->
<g id="node2" class="node">
<title>K</title>
<path fill="#eef3fb" stroke="#4a6fa5" d="M308,-110.43C308,-110.43 191,-110.43 191,-110.43 185,-110.43 179,-104.43 179,-98.43 179,-98.43 179,-62.43 179,-62.43 179,-56.43 185,-50.43 191,-50.43 191,-50.43 308,-50.43 308,-50.43 314,-50.43 320,-56.43 320,-62.43 320,-62.43 320,-98.43 320,-98.43 320,-104.43 314,-110.43 308,-110.43"/>
<text text-anchor="middle" x="249.5" y="-96.83" font-family="Helvetica,sans-Serif" font-size="12.00">¿Cómo se relacionan</text>
<text text-anchor="middle" x="249.5" y="-83.83" font-family="Helvetica,sans-Serif" font-size="12.00">sus partes?</text>
<text text-anchor="middle" x="249.5" y="-70.83" font-family="Helvetica,sans-Serif" font-size="12.00">Cinemática</text>
<text text-anchor="middle" x="249.5" y="-57.83" font-family="Helvetica,sans-Serif" font-size="12.00">(Bloques 11–13)</text>
</g>
<!-- L&#45;&gt;K -->
<g id="edge1" class="edge">
<title>L&#45;&gt;K</title>
<path fill="none" stroke="#4a6fa5" d="M142.01,-80.43C150.82,-80.43 159.89,-80.43 168.83,-80.43"/>
<polygon fill="#4a6fa5" stroke="#4a6fa5" points="168.86,-83.93 178.86,-80.43 168.86,-76.93 168.86,-83.93"/>
</g>
<!-- D -->
<g id="node3" class="node">
<title>D</title>
<path fill="#eef3fb" stroke="#4a6fa5" d="M508,-110.43C508,-110.43 419,-110.43 419,-110.43 413,-110.43 407,-104.43 407,-98.43 407,-98.43 407,-62.43 407,-62.43 407,-56.43 413,-50.43 419,-50.43 419,-50.43 508,-50.43 508,-50.43 514,-50.43 520,-56.43 520,-62.43 520,-62.43 520,-98.43 520,-98.43 520,-104.43 514,-110.43 508,-110.43"/>
<text text-anchor="middle" x="463.5" y="-96.83" font-family="Helvetica,sans-Serif" font-size="12.00">¿Qué fuerzas</text>
<text text-anchor="middle" x="463.5" y="-83.83" font-family="Helvetica,sans-Serif" font-size="12.00">hacen falta?</text>
<text text-anchor="middle" x="463.5" y="-70.83" font-family="Helvetica,sans-Serif" font-size="12.00">Dinámica</text>
<text text-anchor="middle" x="463.5" y="-57.83" font-family="Helvetica,sans-Serif" font-size="12.00">(Bloques 14–16)</text>
</g>
<!-- K&#45;&gt;D -->
<g id="edge2" class="edge">
<title>K&#45;&gt;D</title>
<path fill="none" stroke="#4a6fa5" d="M320.21,-80.43C344.81,-80.43 372.39,-80.43 396.66,-80.43"/>
<polygon fill="#4a6fa5" stroke="#4a6fa5" points="396.84,-83.93 406.84,-80.43 396.84,-76.93 396.84,-83.93"/>
</g>
<!-- C -->
<g id="node4" class="node">
<title>C</title>
<path fill="#eef3fb" stroke="#4a6fa5" d="M740,-110.43C740,-110.43 619,-110.43 619,-110.43 613,-110.43 607,-104.43 607,-98.43 607,-98.43 607,-62.43 607,-62.43 607,-56.43 613,-50.43 619,-50.43 619,-50.43 740,-50.43 740,-50.43 746,-50.43 752,-56.43 752,-62.43 752,-62.43 752,-98.43 752,-98.43 752,-104.43 746,-110.43 740,-110.43"/>
<text text-anchor="middle" x="679.5" y="-96.83" font-family="Helvetica,sans-Serif" font-size="12.00">¿Cómo lograr que</text>
<text text-anchor="middle" x="679.5" y="-83.83" font-family="Helvetica,sans-Serif" font-size="12.00">haga lo que quiero?</text>
<text text-anchor="middle" x="679.5" y="-70.83" font-family="Helvetica,sans-Serif" font-size="12.00">Trayectorias y control</text>
<text text-anchor="middle" x="679.5" y="-57.83" font-family="Helvetica,sans-Serif" font-size="12.00">(Bloques 17–20)</text>
</g>
<!-- D&#45;&gt;C -->
<g id="edge3" class="edge">
<title>D&#45;&gt;C</title>
<path fill="none" stroke="#4a6fa5" d="M520.17,-80.43C543.56,-80.43 571.25,-80.43 596.88,-80.43"/>
<polygon fill="#4a6fa5" stroke="#4a6fa5" points="596.96,-83.93 606.96,-80.43 596.96,-76.93 596.96,-83.93"/>
</g>
<!-- R -->
<g id="node5" class="node">
<title>R</title>
<path fill="#fbeee6" stroke="#b5651d" d="M890,-98.43C890,-98.43 801,-98.43 801,-98.43 795,-98.43 789,-92.43 789,-86.43 789,-86.43 789,-74.43 789,-74.43 789,-68.43 795,-62.43 801,-62.43 801,-62.43 890,-62.43 890,-62.43 896,-62.43 902,-68.43 902,-74.43 902,-74.43 902,-86.43 902,-86.43 902,-92.43 896,-98.43 890,-98.43"/>
<text text-anchor="middle" x="845.5" y="-83.83" font-family="Helvetica,sans-Serif" font-size="12.00">Brazo real</text>
<text text-anchor="middle" x="845.5" y="-70.83" font-family="Helvetica,sans-Serif" font-size="12.00">(Bloques 21–24)</text>
</g>
<!-- C&#45;&gt;R -->
<g id="edge4" class="edge">
<title>C&#45;&gt;R</title>
<path fill="none" stroke="#4a6fa5" d="M752.43,-80.43C761.22,-80.43 770.16,-80.43 778.84,-80.43"/>
<polygon fill="#4a6fa5" stroke="#4a6fa5" points="778.9,-83.93 788.9,-80.43 778.9,-76.93 778.9,-83.93"/>
</g>
<!-- R&#45;&gt;L -->
<g id="edge5" class="edge">
<title>R&#45;&gt;L</title>
<path fill="none" stroke="#b5651d" stroke-dasharray="5,2" d="M809.43,-62.32C792.52,-54.47 771.69,-46.03 752,-41.43 504.02,16.55 428.3,10.57 179,-41.43 165.14,-44.32 150.66,-48.65 136.99,-53.38"/>
<polygon fill="#b5651d" stroke="#b5651d" points="135.44,-50.21 127.2,-56.88 137.8,-56.81 135.44,-50.21"/>
<text text-anchor="middle" x="463.5" y="-12.43" font-family="Helvetica,sans-Serif" font-size="10.00">diagnóstico: se revisa de abajo hacia arriba</text>
</g>
</g>
</svg>
